<svg xmlns="http://www.w3.org/2000/svg" viewBox="0 0 96 96" fill="none"><g stroke="#315f54" stroke-width="2.5" stroke-linecap="round" stroke-linejoin="round"><path d="M41 73 31 85 16 72c-6-5-8-12-9-20L5 29c0-4 5-5 6-1l4 19-2-27c0-4 5-5 6-1l4 25-1-29c0-4 5-5 6-1l3 29 1-24c0-4 5-4 6 0l3 30c1 9-1 17-7 24l-3 4"/><path d="m55 73 10 12 15-13c6-5 8-12 9-20l2-23c0-4-5-5-6-1l-4 19 2-27c0-4-5-5-6-1l-4 25 1-29c0-4-5-5-6-1l-3 29-1-24c0-4-5-4-6 0l-3 30c-1 9 1 17 7 24l3 4"/><path d="m31 85 10 7 7-12 7 12 10-7"/></g></svg>
